<?xml version="1.0" encoding="utf-8"?>
<!-- Generator: Adobe Illustrator 26.1.0, SVG Export Plug-In . SVG Version: 6.00 Build 0)  -->
<svg version="1.1" id="Layer_1" xmlns="http://www.w3.org/2000/svg" xmlns:xlink="http://www.w3.org/1999/xlink" x="0px" y="0px"
	 viewBox="0 0 310 50.0042" style="enable-background:new 0 0 310 50.0042;" xml:space="preserve">
<style type="text/css">
	.st0{fill:#FFFFFF;}
</style>
<path class="st0" d="M78,33.9042c-1.7,0-2.8,0-2.8-1.3c0-0.3,0.1-0.7,0.3-1.2l5.1-11.3H97c1.7,0,2.7-0.1,2.7,1.2
	c0,0.4-0.1,0.8-0.3,1.2l-1,2.2h6.9l1.4-3.1c0.2-0.5,0.2-0.9,0.2-1.3c0-2.8-3-4.2-5.4-4.2h-26l-7.3,16.1c-0.2,0.5-0.2,0.9-0.2,1.3
	c0,3,2.5,4.5,6,4.5h25.7l1.6-4.1C101.3,33.9042,78,33.9042,78,33.9042z M132.2,16.0042h-19.4l-8.8,22h7l7-17.8h10.7
	c1.7,0,2.6-0.2,2.6,1.1c0,0.4-0.1,0.8-0.3,1.2l-1,2.2h7l1.4-3.1c0.2-0.5,0.2-0.9,0.2-1.3c0-1.3-0.7-2.4-2.2-3.2
	C135.2,16.5042,133.6,16.0042,132.2,16.0042z M170.7,16.0042h-27l-7.3,16.1c-0.2,0.4-0.2,0.8-0.2,1.3c0,2.5,1.8,4.5,4.1,4.5h27.3
	l7.4-16.5c0.2-0.5,0.2-0.9,0.2-1.3C175.2,17.5042,173,16.0042,170.7,16.0042z M162.2,34.0042h-16.3c-1.7,0-2.5-0.2-2.5-1.5
	c0-0.4,0.1-0.8,0.3-1.2l5.3-11.3h16.4c1.6,0,2.4-0.1,2.4,1.2c0,0.4-0.1,0.8-0.3,1.3L162.2,34.0042z M179.9,38.0042h36.4l9.4-21.9
	h-7.2l-7.8,17.8H199l7.8-17.9h-7.2l-8.1,17.8h-8c-1.7,0-2.6-0.2-2.6-1.5c0-0.4,0.1-0.8,0.3-1.2l6.7-15.2h-7l-7,15.8
	C172.5,36.0042,176.7,38.0042,179.9,38.0042z M266,8.0042l-7.5,2l-2.5,6h-18.5c-4.5,0-8.5,2-10.5,6l-5,12c-1,2,0.8,4,4.2,4H253
	L266,8.0042z M231,34.0042c-1.5,0-2.2-1-2-2l4.4-9.6c1-2.3,3.4-2.4,5.6-2.4h15l-6,14H231z M265,38.0042l9.5-22.5l-8,1.5l-9,21H265z
	 M275.7,12.7042l2.1-4.7l-7.9,1.6l-2,4.7L275.7,12.7042z M303.9,16.0042H278l-9,22h7l7-18h17.1c1.7,0,2.6-0.1,2.6,1.3
	c0,0.4-0.1,0.8-0.3,1.2l-7,15.6h7l7.4-16.5c0.2-0.4,0.2-0.8,0.2-1.3c0-1.3-0.7-2.4-2.2-3.2
	C306.7,16.5042,305.4,16.0042,303.9,16.0042z"/>
<path class="st0" d="M59.3,17.1042c-11-1.3-20.9,0.9-22.3,7.8c0,0.3-0.2,1.6-0.2,1.8l1.8,0.2c0,0.3,0,0.7,0,1c0,0.6,0,1.2,0,1.8
	l-1.7-0.2c0.7,7.1,4.6,9.2,8.7,9.3h0.3c1.8,0.1,3.7-0.3,5.3-1c0.1,0,0.1-0.1,0.1-0.1c0-0.1,0-0.1,0-0.2c0-0.1-0.1-0.1-0.1-0.2
	c-0.1,0-0.1-0.1-0.2-0.1c-3.8,0.5-7.3-2.6-7.3-8.9c0-7.9,6.2-10.8,15.6-10.8C59.6,17.7042,59.7,17.2042,59.3,17.1042z M38.9,31.4042
	c1,0,1.9,0.2,2.8,0.3c0.3,2.1,1.3,4.1,2.8,5.5c-1.5-0.2-2.8-0.9-3.9-1.9C39.7,34.2042,39.1,32.9042,38.9,31.4042L38.9,31.4042z
	 M42.3,24.5042c0,0.3-0.2,0.7-0.3,1.2h-1.3c-0.7,0-1.3-0.1-2-0.2c0-0.1,0-0.1,0-0.2c0.8-4.3,5.1-6,9.2-6.8c-1.3,0.5-2.5,1.3-3.5,2.3
	C43.4,21.9042,42.7,23.1042,42.3,24.5042L42.3,24.5042z"/>
<path class="st0" d="M63.6,10.8042c-8.3-2.3-43.2-5.1-43.2,14.3c1.2,0.2,2,0.4,2.6,0.5c-0.1,1.5,0,3.1,0,4.6l-3.1-0.5
	c0,11.2,8.2,14.8,14.7,14.8c1.1,0,2.1-0.1,3.2-0.2c2.7-0.3,5.3-1.1,7.6-2.4c0.1,0,0.1-0.1,0.1-0.1c0-0.1,0-0.1,0-0.2
	c0-0.1-0.1-0.1-0.1-0.2c-0.1,0-0.1-0.1-0.2-0.1c-5.5,1.1-12.9-0.4-12.9-13.4c0-17.3,24.3-16.2,31.4-16.5c0.1,0,0.1-0.1,0.1-0.1
	c0-0.1,0-0.1,0-0.2s0-0.1-0.1-0.2C63.7,10.8042,63.7,10.8042,63.6,10.8042z M34.6,42.9042c-3.1,0.2-6.2-0.8-8.6-2.9
	c-2.4-2.1-3.9-5-4.2-8.1c2.1,0.3,4.7,0.5,6.9,0.6c0.1,2.2,0.8,4.3,2,6.1s2.8,3.3,4.7,4.3C35.4,42.9042,34.6,42.9042,34.6,42.9042z
	 M28.9,24.6042l-3.3-0.3l-3.3-0.4c0-10.1,16.2-14,23.7-13.3C38.5,12.3042,29.4,15.8042,28.9,24.6042z"/>
<path class="st0" d="M67.9,5.0042c-10.1-3.4-21.6-5.1-32.3-5c-15.5,0-35.1,4.6-35.6,20.4l4.2,1c-0.5,2-0.5,6.1-0.5,6.1
	s-2.4-0.7-3.7-1c0,18.8,11,23.5,21.6,23.5c4.3,0,8.5-0.7,12.5-2.2c0.1,0,0.1-0.1,0.1-0.1c0-0.1,0-0.1,0-0.2c0-0.1-0.1-0.1-0.1-0.2
	c0,0-0.1,0-0.2,0c-3.3,0-5.9,1.1-11.1-2.6c-10.1-7.1-8.9-25.5,2.7-33.5c12-8.5,37.8-5.8,42.2-5.6h0.1h0.1c0,0,0.1,0,0.1-0.1v-0.1
	v-0.1v-0.1C68,5.1042,68,5.1042,67.9,5.0042C67.9,5.1042,67.9,5.1042,67.9,5.0042z M21.7,48.5042c-12.6,0-19-6.8-19.6-19.8
	c3.4,0.9,6.6,1.7,10.1,2.2c-0.2,5.1,1.6,10.1,5.1,14c1.8,1.7,4,3,6.4,3.7L21.7,48.5042z M50.1,3.0042c-15.3,0-33,1.8-36.5,18.5
	c0,0-9.4-1.5-11.5-2c2.6-21,38.8-19.4,53.4-16.5H50.1z"/>
</svg>
